<svg xmlns="http://www.w3.org/2000/svg" version="1.1" xmlns:xlink="http://www.w3.org/1999/xlink" xmlns:svgjs="http://svgjs.com/svgjs" width="1400" height="1600" preserveAspectRatio="none" viewBox="0 0 1400 1600"><g mask="url(&quot;#SvgjsMask1004&quot;)" fill="none"><rect width="1400" height="1600" x="0" y="0" fill="rgba(255, 255, 255, 1)"></rect><path d="M0 996.89L10 903.87L20 979.08L30 1085.23L40 922.04L50 941.95L60 1002.3L70 1099.01L80 926.54L90 752.7L100 609.39L110 477.27L120 647.74L130 641.27L140 657.09L150 660.82L160 630.15L170 613.08L180 806.79L190 668.08L200 590.57L210 497.42L220 376.94L230 421.43L240 310.32L250 328.5L260 130.99L270 280.54L280 101.28L290 41.95L300 186.53L310 276.08L320 118.32L330 27.39L340 124.44L350 73.49L360 252.93L370 377.89L380 228.56L390 291.18L400 202.78L410 314.76L420 305.56L430 197.44L440 153.62L450 210.78L460 134.22L470 182.84L480 173.99L490 198.53L500 248.61L510 304.35L520 136.4L530 163.6L540 81.17L550 270.54L560 317.02L570 362.96L580 500.8L590 636.86L600 479.89L610 433.87L620 504.3L630 704.04L640 801.62L650 646.25L660 491.28L670 305.96L680 491.12L690 479.42L700 451.48L710 642.36L720 834.34L730 992.53L740 942.26L750 1017.85L760 904.25L770 801.74L780 1001.16L790 1173.6L800 1047.79L810 1243.46L820 1207.84L830 1169.22L840 1060.93L850 1208.72L860 1375.95L870 1456.56L880 1562.06L890 1558.57L900 1484.54L910 1306.63L920 1344.26L930 1350.32L940 1531.7L950 1341.43L960 1262.59L970 1250.73L980 1108.02L990 1099.69L1000 986.18L1010 1070.21L1020 963.69L1030 1013.9L1040 955.47L1050 822.05L1060 678.57L1070 623.04L1080 508L1090 649.68L1100 781.03L1110 606.84L1120 520.54L1130 581.64L1140 662.53L1150 493.07L1160 336.46L1170 343.47L1180 311.83L1190 259.83L1200 341.85L1210 143.27L1220 221.24L1230 336.43L1240 356.24L1250 348.65L1260 202.47L1270 27.06L1280 77.08L1290 110.23L1300 279.7L1310 437.51L1320 511.87L1330 453.23L1340 298.93L1350 455L1360 257.48L1370 302.84L1380 210.54L1390 238.31L1400 361.93" stroke="rgba(23, 17, 35, 1)" stroke-width="2"></path><path d="M0 996.89L10 903.87L20 979.08L30 1085.23L40 922.04L50 941.95L60 1002.3L70 1099.01L80 926.54L90 752.7L100 609.39L110 477.27L120 647.74L130 641.27L140 657.09L150 660.82L160 630.15L170 613.08L180 806.79L190 668.08L200 590.57L210 497.42L220 376.94L230 421.43L240 310.32L250 328.5L260 130.99L270 280.54L280 101.28L290 41.95L300 186.53L310 276.08L320 118.32L330 27.39L340 124.44L350 73.49L360 252.93L370 377.89L380 228.56L390 291.18L400 202.78L410 314.76L420 305.56L430 197.44L440 153.62L450 210.78L460 134.22L470 182.84L480 173.99L490 198.53L500 248.61L510 304.35L520 136.4L530 163.6L540 81.17L550 270.54L560 317.02L570 362.96L580 500.8L590 636.86L600 479.89L610 433.87L620 504.3L630 704.04L640 801.62L650 646.25L660 491.28L670 305.96L680 491.12L690 479.42L700 451.48L710 642.36L720 834.34L730 992.53L740 942.26L750 1017.85L760 904.25L770 801.74L780 1001.16L790 1173.6L800 1047.79L810 1243.46L820 1207.84L830 1169.22L840 1060.93L850 1208.72L860 1375.95L870 1456.56L880 1562.06L890 1558.57L900 1484.54L910 1306.63L920 1344.26L930 1350.32L940 1531.7L950 1341.43L960 1262.59L970 1250.73L980 1108.02L990 1099.69L1000 986.18L1010 1070.21L1020 963.69L1030 1013.9L1040 955.47L1050 822.05L1060 678.57L1070 623.04L1080 508L1090 649.68L1100 781.03L1110 606.84L1120 520.54L1130 581.64L1140 662.53L1150 493.07L1160 336.46L1170 343.47L1180 311.83L1190 259.83L1200 341.85L1210 143.27L1220 221.24L1230 336.43L1240 356.24L1250 348.65L1260 202.47L1270 27.06L1280 77.08L1290 110.23L1300 279.7L1310 437.51L1320 511.87L1330 453.23L1340 298.93L1350 455L1360 257.48L1370 302.84L1380 210.54L1390 238.31L1400 361.93L1400 1600L0 1600z" fill="url(#SvgjsLinearGradient1005)"></path></g><defs><mask id="SvgjsMask1004"><rect width="1400" height="1600" fill="#ffffff"></rect></mask><linearGradient x1="50%" y1="0%" x2="50%" y2="100%" id="SvgjsLinearGradient1005"><stop stop-opacity="0.65" stop-color="rgba(23, 17, 35, 1)" offset="0"></stop><stop stop-opacity="0" stop-color="#2b2042" offset="0.8"></stop></linearGradient></defs></svg>