<svg xmlns="http://www.w3.org/2000/svg" version="1.1" xmlns:xlink="http://www.w3.org/1999/xlink" xmlns:svgjs="http://svgjs.com/svgjs" width="1400" height="1600" preserveAspectRatio="none" viewBox="0 0 1400 1600"><g mask="url(&quot;#SvgjsMask1106&quot;)" fill="none"><rect width="1400" height="1600" x="0" y="0" fill="rgba(244, 96, 54, 1)"></rect><path d="M0 1342.05L10 1231.54L20 1385.87L30 1569.82L40 1572.19L50 1547.02L60 1449.01L70 1452.2L80 1486.98L90 1479.12L100 1577.41L110 1420.79L120 1249.01L130 1049.81L140 890.81L150 931.38L160 971.42L170 1143.5L180 1244.84L190 1173.02L200 1164.34L210 1287.62L220 1186.37L230 1018.76L240 952.81L250 1019.41L260 1066.83L270 992.37L280 1014.42L290 1058.58L300 869.85L310 770.45L320 609.29L330 476.92L340 310.7L350 475.73L360 655.35L370 540.07L380 686.14L390 727.07L400 577.29L410 680.99L420 620.51L430 718.87L440 806.25L450 977.83L460 847.95L470 982.13L480 911.91L490 1026.79L500 960.33L510 1150.12L520 1204.88L530 1207.47L540 1026.89L550 1163.77L560 995.23L570 1150.8L580 1036.85L590 897.47L600 839.06L610 916.22L620 1001.14L630 876.14L640 949.13L650 1002.3L660 874.41L670 710.75L680 773.92L690 653.02L700 746.52L710 870.43L720 898.54L730 718.12L740 901.08L750 1055.15L760 929.82L770 1068.73L780 1205.96L790 1052.73L800 869.48L810 1069.35L820 1239.8L830 1108.59L840 935.03L850 835.81L860 808.89L870 797.73L880 637.69L890 561.91L900 644.97L910 738.56L920 751.73L930 815.21L940 722.82L950 798.22L960 839.23L970 902.2L980 833.89L990 752.91L1000 601.18L1010 442.39L1020 525.63L1030 437.38L1040 610.99L1050 730.24L1060 821.47L1070 842.57L1080 727.34L1090 750.23L1100 699.95L1110 606.23L1120 539.99L1130 383.59L1140 273.32L1150 250.81L1160 440.4L1170 458.36L1180 520.33L1190 487.21L1200 363.08L1210 196.63L1220 164.85L1230 60.89L1240 91.24L1250 125.32L1260 145.71L1270 125.05L1280 230.54L1290 267.91L1300 242.92L1310 417.2L1320 491.85L1330 446.68L1340 248.87L1350 228.55L1360 261.73L1370 72.39L1380 139.69L1390 5.54L1400 191.98" stroke="rgba(23, 17, 35, 1)" stroke-width="2"></path><path d="M0 1342.05L10 1231.54L20 1385.87L30 1569.82L40 1572.19L50 1547.02L60 1449.01L70 1452.2L80 1486.98L90 1479.12L100 1577.41L110 1420.79L120 1249.01L130 1049.81L140 890.81L150 931.38L160 971.42L170 1143.5L180 1244.84L190 1173.02L200 1164.34L210 1287.62L220 1186.37L230 1018.76L240 952.81L250 1019.41L260 1066.83L270 992.37L280 1014.42L290 1058.58L300 869.85L310 770.45L320 609.29L330 476.92L340 310.7L350 475.73L360 655.35L370 540.07L380 686.14L390 727.07L400 577.29L410 680.99L420 620.51L430 718.87L440 806.25L450 977.83L460 847.95L470 982.13L480 911.91L490 1026.79L500 960.33L510 1150.12L520 1204.88L530 1207.47L540 1026.89L550 1163.77L560 995.23L570 1150.8L580 1036.85L590 897.47L600 839.06L610 916.22L620 1001.14L630 876.14L640 949.13L650 1002.3L660 874.41L670 710.75L680 773.92L690 653.02L700 746.52L710 870.43L720 898.54L730 718.12L740 901.08L750 1055.15L760 929.82L770 1068.73L780 1205.96L790 1052.73L800 869.48L810 1069.35L820 1239.8L830 1108.59L840 935.03L850 835.81L860 808.89L870 797.73L880 637.69L890 561.91L900 644.97L910 738.56L920 751.73L930 815.21L940 722.82L950 798.22L960 839.23L970 902.2L980 833.89L990 752.91L1000 601.18L1010 442.39L1020 525.63L1030 437.38L1040 610.99L1050 730.24L1060 821.47L1070 842.57L1080 727.34L1090 750.23L1100 699.95L1110 606.23L1120 539.99L1130 383.59L1140 273.32L1150 250.81L1160 440.4L1170 458.36L1180 520.33L1190 487.21L1200 363.08L1210 196.63L1220 164.85L1230 60.89L1240 91.24L1250 125.32L1260 145.71L1270 125.05L1280 230.54L1290 267.91L1300 242.92L1310 417.2L1320 491.85L1330 446.68L1340 248.87L1350 228.55L1360 261.73L1370 72.39L1380 139.69L1390 5.54L1400 191.98L1400 1600L0 1600z" fill="url(#SvgjsLinearGradient1107)"></path></g><defs><mask id="SvgjsMask1106"><rect width="1400" height="1600" fill="#ffffff"></rect></mask><linearGradient x1="50%" y1="0%" x2="50%" y2="100%" id="SvgjsLinearGradient1107"><stop stop-opacity="0.65" stop-color="rgba(23, 17, 35, 1)" offset="0"></stop><stop stop-opacity="0" stop-color="#2b2042" offset="0.8"></stop></linearGradient></defs></svg>